# xmcd CD database file
#
# Track frame offsets:
#	150
#	23755
#	39945
#	52755
#	64735
#	77050
#	93532
#	109520
#	119595
#	129985
#	151925
#	165237
#	178477
#
# Disc length: 2592 seconds
#
# Revision: 0
# Processed by: cddbd v1.5.1PL0 Copyright (c) Steve Scherf et al.
# Submitted via: CDex 1.51
#
DISCID=9a0a1e0d
DTITLE=Al Haig - JAZZ WILL-O-THE-WISP
DYEAR=1954
DGENRE=Jazz
TTITLE0=Autumn In New York
TTITLE1=Isn't It Romantic
TTITLE2=They Can't Take That A Way From Me
TTITLE3=Royal Garden Blues
TTITLE4=Don't Blame Me
TTITLE5=Moonlight In Vermont
TTITLE6=If I Should Lose You
TTITLE7=April In Paris
TTITLE8=All God's Chillun Got Rhythm
TTITLE9=Body And Soul
TTITLE10=Gone With The Wind
TTITLE11=My Old Flame
TTITLE12=On The Alamo
EXTD=YEAR: 1954
EXTT0=
EXTT1=
EXTT2=
EXTT3=
EXTT4=
EXTT5=
EXTT6=
EXTT7=
EXTT8=
EXTT9=
EXTT10=
EXTT11=
EXTT12=
PLAYORDER=
